<svg width="114" height="66" viewBox="0 0 114 66" fill="none" xmlns="http://www.w3.org/2000/svg">
<g clip-path="url(#clip0_53_5037)">
<path d="M109.978 0.0984171L4.08982 0C1.86243 0 0.0531469 1.78665 0.0531469 4.00482L0.0151367 48.4288C61.0366 56.1507 99.3128 38.1934 113.977 31.3421L114 4.11081C114 1.89264 112.206 0.0984171 109.978 0.0984171Z" fill="#86B825"/>
<path d="M0.0151367 48.4288V49.2767C61.4547 55.5451 99.5105 41.8424 113.97 36.1872V31.342C99.3128 38.1934 61.0366 56.1507 0.0151367 48.4288Z" fill="white"/>
<path d="M0.0152279 49.2767V49.8597L2.38686e-05 61.8893C-0.00757816 64.0998 1.8017 65.9016 4.0291 65.9016L93.8318 65.9849L109.918 66.0001C112.145 66.0076 113.947 64.2058 113.947 61.9952V57.6346L113.97 36.3538V36.1873C99.5106 41.8425 61.4548 55.5451 0.0152279 49.2767Z" fill="#FFD500"/>
<path d="M48.174 33.1363L46.2051 27.3751L46.1519 27.0193C46.1519 26.5877 46.4939 26.2395 46.9729 26.2395C47.3682 26.2395 47.6343 26.4439 47.7863 26.883L49.2763 31.4935H49.3143L50.7435 26.883C50.8803 26.4363 51.1692 26.2395 51.5569 26.2395C52.0358 26.2395 52.3627 26.5877 52.3627 27.0268L52.3095 27.3827L50.3178 33.1363C50.0669 33.8555 49.7476 34.1129 49.2535 34.1129C48.7594 34.1129 48.4325 33.8479 48.1816 33.1287" fill="white"/>
<path d="M53.2293 27.0571C53.2293 26.6104 53.503 26.3228 53.9591 26.3228H57.7221C58.1935 26.3228 58.5052 26.6331 58.4976 27.0571C58.49 27.481 58.1859 27.7763 57.7145 27.7763H54.9626L54.8942 27.8444V29.3737L54.9626 29.4418H57.1672C57.6309 29.4418 57.9274 29.7446 57.9274 30.1686C57.9274 30.5925 57.6233 30.8878 57.1596 30.8878H54.955L54.8866 30.9484V32.5533L54.955 32.6214H57.7069C58.1783 32.6214 58.49 32.9318 58.49 33.3406C58.49 33.757 58.1783 34.0674 57.7069 34.0674H53.9363C53.4802 34.0674 53.2065 33.7646 53.2065 33.3179V27.0571H53.2293Z" fill="white"/>
<path d="M63.4693 31.1831L62.5799 28.4728H62.5495L61.6448 31.1831H63.4693ZM59.3034 33.0303L61.4168 27.2388C61.6372 26.6256 61.9793 26.2622 62.5723 26.2622C63.1653 26.2622 63.5225 26.6256 63.7354 27.2388L65.7956 33.0378L65.8564 33.3558C65.8564 33.8328 65.4611 34.1431 65.043 34.1431C64.6781 34.1431 64.3816 33.9236 64.2599 33.5451L63.9407 32.5988H61.1659L60.8542 33.5375C60.7326 33.916 60.4361 34.128 60.0636 34.128C59.6455 34.128 59.2578 33.8176 59.2578 33.3407L59.3186 33.0227L59.3034 33.0303Z" fill="white"/>
<path d="M28.2795 40.5629L27.3976 37.8527H27.3672L26.455 40.5629H28.2795ZM24.1288 42.4102L26.2345 36.6187C26.455 36.0055 26.7971 35.6421 27.39 35.6421C27.983 35.6421 28.3403 36.0055 28.5531 36.6187L30.6133 42.4102L30.6665 42.7281C30.6665 43.2051 30.2788 43.5155 29.8531 43.5155C29.4882 43.5155 29.1917 43.2959 29.0625 42.925L28.7432 41.9786H25.9684L25.6568 42.9174C25.5275 43.2959 25.231 43.5079 24.8662 43.5079C24.4404 43.5079 24.0527 43.1975 24.0527 42.7205L24.1136 42.4026L24.1288 42.4102Z" fill="white"/>
<path d="M31.594 36.5355C31.594 35.9905 31.9513 35.6422 32.4455 35.6498C32.9244 35.6498 33.2741 35.9905 33.2741 36.5355V38.731L33.3425 38.7991H35.874L35.9424 38.731V36.5355C35.9424 35.9905 36.2997 35.6498 36.7786 35.6498C37.2651 35.6498 37.6224 35.9905 37.6224 36.5431V42.645C37.6148 43.19 37.2575 43.5307 36.7634 43.5231C36.2693 43.5156 35.9348 43.1825 35.9348 42.6374V40.3587L35.8664 40.2905H33.3349L33.2665 40.3511V42.6298C33.2665 43.1749 32.894 43.5156 32.415 43.5156C31.9361 43.5156 31.5864 43.1749 31.5864 42.6222V36.5204L31.594 36.5355Z" fill="white"/>
<path d="M43.0048 41.2746C43.1036 40.9869 43.134 40.6008 43.134 39.6015C43.134 38.6022 43.1036 38.2085 43.0124 37.9284C42.8451 37.406 42.427 37.0881 41.7884 37.0881C41.1499 37.0881 40.7318 37.406 40.5645 37.9284C40.4733 38.2161 40.4429 38.6022 40.4353 39.6015C40.4353 40.6084 40.4657 40.9869 40.5569 41.2746C40.7242 41.797 41.1423 42.1149 41.7808 42.1149C42.4194 42.1149 42.8375 41.797 43.0048 41.2746ZM38.9453 41.7137C38.778 41.1686 38.7324 40.7295 38.7324 39.5939C38.7324 38.4583 38.778 38.0268 38.9529 37.4742C39.3634 36.225 40.4353 35.6042 41.7884 35.6042C43.1492 35.6042 44.2135 36.2326 44.624 37.4893C44.7912 38.0344 44.8368 38.4735 44.8368 39.6091C44.8368 40.7446 44.7836 41.1762 44.6164 41.7288C44.2059 42.978 43.134 43.5987 41.7808 43.5987C40.4201 43.5987 39.3558 42.9704 38.9453 41.7137Z" fill="white"/>
<path d="M50.1203 38.1555C50.1203 37.565 49.7098 37.1864 49.0712 37.1864H47.6952L47.6268 37.2546V39.0412L47.6952 39.1094H49.0712C49.7098 39.1094 50.1203 38.7384 50.1203 38.1555ZM50.1355 43.0309L48.8355 40.5402H47.6952L47.6268 40.6083V42.6675C47.6268 43.1975 47.2771 43.5533 46.7906 43.5533C46.3041 43.5533 45.9468 43.1975 45.9468 42.6675V36.49C45.9544 36.0433 46.2281 35.748 46.6918 35.748H49.1624C50.7665 35.748 51.8155 36.7474 51.8079 38.1555C51.8079 39.1018 51.3214 39.8513 50.5232 40.2449L51.6559 42.2966L51.7699 42.7659C51.7699 43.1975 51.4735 43.5608 50.9717 43.5608C50.6296 43.5608 50.3408 43.4019 50.1507 43.0385" fill="white"/>
<path d="M57.0304 38.1708C57.0304 37.5803 56.6199 37.2017 55.9814 37.2017H54.613L54.5446 37.2699V39.0565L54.6054 39.1246H55.9814C56.6199 39.1246 57.038 38.7537 57.038 38.1708M57.038 43.0386L55.7457 40.5479H54.6054L54.537 40.616V42.6752C54.537 43.2127 54.1873 43.561 53.7008 43.5686C53.2066 43.5686 52.8569 43.2127 52.8569 42.6752V36.4977C52.8645 36.051 53.1458 35.7558 53.6019 35.7633H56.0726C57.6766 35.7633 58.7181 36.7551 58.7181 38.1708C58.7181 39.1171 58.2392 39.8666 57.4334 40.2602L58.5661 42.3118L58.6801 42.7812C58.6801 43.2127 58.3836 43.5761 57.8743 43.5761C57.5322 43.5761 57.2509 43.4171 57.0533 43.0538" fill="white"/>
<path d="M63.8492 41.3049C63.9404 41.0172 63.9708 40.6311 63.9784 39.6318C63.9784 38.6325 63.9404 38.2464 63.8568 37.9587C63.682 37.4364 63.2715 37.1184 62.6329 37.1184C61.9943 37.1184 61.5762 37.4364 61.409 37.9587C61.3101 38.2464 61.2873 38.6325 61.2797 39.6318C61.2797 40.6311 61.3101 41.0172 61.4014 41.3049C61.5686 41.8273 61.9791 42.1453 62.6253 42.1528C63.2639 42.1528 63.6744 41.8349 63.8492 41.3125M59.7897 41.744C59.6225 41.1989 59.5693 40.7674 59.5769 39.6243C59.5769 38.4811 59.6225 38.0496 59.7973 37.5045C60.2078 36.2554 61.2797 35.627 62.6329 35.6346C63.986 35.6422 65.0579 36.2629 65.4608 37.5197C65.6281 38.0647 65.6813 38.4963 65.6737 39.6394C65.6737 40.775 65.6205 41.2065 65.4456 41.7516C65.0351 43.0007 63.9708 43.6291 62.6101 43.6215C61.2493 43.6215 60.185 42.9932 59.7745 41.7364" fill="white"/>
<path fill-rule="evenodd" clip-rule="evenodd" d="M101.335 19.1458C101.791 18.8657 102.316 18.7143 102.886 18.7143C104.52 18.7143 105.836 20.0467 105.836 21.6743C105.836 22.227 105.684 22.7418 105.41 23.1809L105.425 23.196C107.736 26.3454 109.051 30.2366 109.036 34.4383C108.99 44.9008 100.446 53.3419 89.9398 53.2965C79.4338 53.2511 70.9575 44.7342 71.0031 34.2793C71.0487 23.8168 79.601 15.3757 90.0994 15.4211C94.3109 15.4362 98.2032 16.8368 101.343 19.1534" fill="white"/>
<path fill-rule="evenodd" clip-rule="evenodd" d="M103.882 24.4223C103.57 24.5359 103.197 24.604 102.848 24.604C101.229 24.604 99.921 23.2792 99.921 21.6667C99.921 21.3033 99.9894 20.955 100.111 20.6371C97.2983 18.5855 93.8318 17.359 90.0764 17.3439C80.6423 17.306 72.9566 24.8917 72.9186 34.2868C72.8806 43.6894 80.4978 51.3356 89.9319 51.3735C99.3737 51.4113 107.052 43.8257 107.09 34.4306C107.105 30.6983 105.904 27.231 103.874 24.4223" fill="#FFF800"/>
<path d="M101.259 21.6289C101.259 20.7431 101.989 20.0239 102.878 20.0239C103.768 20.0239 104.49 20.7507 104.49 21.6365C104.49 22.5222 103.76 23.2414 102.863 23.2338C101.966 23.2263 101.251 22.5071 101.251 21.6213" fill="#FF0000"/>
<path fill-rule="evenodd" clip-rule="evenodd" d="M80.6653 43.8561C80.7717 43.7501 80.8933 43.6744 81.0226 43.6214C81.1594 43.5684 81.2962 43.5381 81.4331 43.5381C81.5699 43.5381 81.7067 43.5684 81.836 43.6214C81.9728 43.6744 82.0944 43.7501 82.1933 43.8561L82.3377 44.0075L82.0412 44.3103L81.8892 44.1589C81.8284 44.0907 81.7524 44.0453 81.6763 44.015C81.5927 43.9847 81.5167 43.9696 81.4331 43.9696C81.3495 43.9696 81.2658 43.9847 81.1898 44.015C81.1062 44.0453 81.0378 44.0907 80.9693 44.1589C80.9085 44.2194 80.8553 44.2876 80.8249 44.3708C80.7945 44.4466 80.7717 44.5298 80.7717 44.6131C80.7717 44.6964 80.7869 44.7797 80.8173 44.8554C80.8477 44.9386 80.9009 45.0068 80.9617 45.0749C81.091 45.2036 81.243 45.2717 81.4255 45.2717C81.5091 45.2717 81.5927 45.2566 81.6763 45.2263C81.76 45.196 81.8284 45.1506 81.8892 45.0825L82.0412 44.9311L82.3377 45.2339L82.1857 45.3777C82.0792 45.4837 81.9576 45.5594 81.8208 45.6124C81.6915 45.6654 81.5547 45.6881 81.4179 45.6881C81.281 45.6881 81.1442 45.6654 81.0074 45.6124C80.8781 45.5594 80.7565 45.4761 80.6501 45.3702C80.5436 45.2642 80.4676 45.143 80.4144 45.0143C80.3612 44.8856 80.3384 44.7494 80.3384 44.6131C80.3384 44.4768 80.3612 44.333 80.4144 44.2043C80.4676 44.0756 80.5436 43.9545 80.6501 43.8485" fill="#FF0000"/>
<path fill-rule="evenodd" clip-rule="evenodd" d="M84.3597 44.9538L84.6638 45.2566L84.5118 45.4004C84.4053 45.5064 84.2913 45.5821 84.1621 45.6351C84.0328 45.6881 83.896 45.7108 83.7516 45.7108C83.6071 45.7108 83.4703 45.6805 83.3411 45.6276C83.2118 45.5746 83.0902 45.4913 82.9914 45.3929C82.8849 45.2869 82.8089 45.1658 82.7557 45.0371C82.7025 44.9008 82.6797 44.7645 82.6797 44.6282C82.6797 44.492 82.7025 44.3557 82.7633 44.227C82.8165 44.0983 82.8925 43.9772 82.999 43.8712C83.1054 43.7652 83.227 43.6895 83.3563 43.6365C83.4931 43.5835 83.6299 43.5532 83.7668 43.5532C83.9036 43.5532 84.0404 43.5835 84.1697 43.6365C84.3065 43.6895 84.4282 43.7652 84.527 43.8712L84.6714 44.0226L83.4703 45.2112C83.5919 45.2717 83.7212 45.2944 83.858 45.2717C83.9948 45.249 84.1165 45.1885 84.2229 45.09L84.3749 44.9386L84.3597 44.9538ZM83.2954 44.1816C83.1662 44.3103 83.0978 44.4617 83.0978 44.6358C83.0978 44.7342 83.1206 44.8326 83.1662 44.9235C83.2042 44.8856 83.265 44.8251 83.3411 44.7494C83.4171 44.6737 83.5007 44.5904 83.5919 44.4995C83.6832 44.4087 83.7668 44.3254 83.8504 44.2497C83.934 44.1664 83.9948 44.1059 84.0405 44.0605C83.9188 43.9999 83.7896 43.9772 83.6527 43.9999C83.5159 44.015 83.4019 44.0756 83.2954 44.1816Z" fill="#FF0000"/>
<path fill-rule="evenodd" clip-rule="evenodd" d="M85.0518 44.6434C85.0518 44.492 85.0822 44.3557 85.1354 44.227C85.1962 44.0983 85.2722 43.9847 85.371 43.8863C85.4699 43.7879 85.5839 43.7122 85.7207 43.6592C85.85 43.5986 85.9944 43.5759 86.1388 43.5759C86.2833 43.5759 86.4277 43.6062 86.557 43.6668C86.6862 43.7198 86.8002 43.803 86.8991 43.8939C86.9979 43.9923 87.0739 44.1059 87.1271 44.2346C87.1879 44.3633 87.2107 44.4995 87.2107 44.6509V45.726H86.7774V44.6509C86.7774 44.5601 86.7622 44.4768 86.7318 44.4011C86.7014 44.3178 86.6558 44.2497 86.595 44.1967C86.5418 44.1361 86.4657 44.0907 86.3897 44.0529C86.3137 44.015 86.2225 43.9999 86.1388 43.9999C86.0552 43.9999 85.964 44.015 85.8804 44.0529C85.8044 44.0832 85.7359 44.1286 85.6751 44.1891C85.6143 44.2421 85.5687 44.3103 85.5307 44.3935C85.5003 44.4693 85.4851 44.5525 85.4851 44.6434V45.7184H85.0518V44.6434Z" fill="#FF0000"/>
<path fill-rule="evenodd" clip-rule="evenodd" d="M87.9177 43.8863C88.0241 43.7803 88.1458 43.7046 88.275 43.6516C88.4118 43.5986 88.5487 43.5684 88.6855 43.5684C88.8224 43.5684 88.9592 43.5986 89.0884 43.6516C89.2253 43.7046 89.3393 43.7803 89.4457 43.8863L89.5902 44.0377L89.2937 44.3406L89.1416 44.1891C89.0808 44.121 89.0048 44.0756 88.9288 44.0453C88.8452 44.015 88.7691 43.9999 88.6855 43.9999C88.6019 43.9999 88.5183 44.015 88.4422 44.0453C88.3586 44.0756 88.2902 44.121 88.2218 44.1891C88.161 44.2497 88.1078 44.3178 88.0773 44.4011C88.0469 44.4768 88.0317 44.5601 88.0241 44.6434C88.0165 44.7267 88.0393 44.8099 88.0697 44.8856C88.1002 44.9689 88.1458 45.037 88.2142 45.1052C88.3434 45.2339 88.4955 45.302 88.6779 45.302C88.7615 45.302 88.8452 45.2869 88.9288 45.2566C89.0124 45.2263 89.0808 45.1809 89.1416 45.1128L89.2937 44.9613L89.5902 45.2642L89.4381 45.408C89.3317 45.514 89.21 45.5897 89.0732 45.6427C88.944 45.6957 88.8071 45.7184 88.6703 45.7184C88.5335 45.7184 88.3966 45.6957 88.2598 45.6427C88.1306 45.5897 88.0089 45.5064 87.9025 45.4004C87.7961 45.2944 87.7201 45.1733 87.6668 45.0446C87.6136 44.9159 87.5908 44.7796 87.5908 44.6434C87.5908 44.5071 87.6212 44.3633 87.6668 44.2346C87.7201 44.1059 87.7961 43.9847 87.9025 43.8788" fill="#FF0000"/>
<path fill-rule="evenodd" clip-rule="evenodd" d="M89.917 44.6661C89.917 44.5147 89.9474 44.3784 90.0006 44.2497C90.0538 44.121 90.1374 44.0074 90.2363 43.909C90.3351 43.8106 90.4491 43.7349 90.586 43.6819C90.7152 43.6289 90.8596 43.5986 91.0041 43.5986C91.1485 43.5986 91.293 43.6289 91.4222 43.6895C91.5514 43.7425 91.6655 43.8182 91.7719 43.9166C91.8707 44.015 91.9467 44.1286 91.9999 44.2573C92.0608 44.386 92.0836 44.5222 92.0836 44.6736C92.0836 44.8251 92.0532 44.9613 91.9923 45.09C91.9391 45.2187 91.8631 45.3323 91.7643 45.4307C91.6655 45.5291 91.5514 45.6048 91.4146 45.6654C91.2854 45.7184 91.1485 45.7411 90.9965 45.7411C90.8444 45.7411 90.7076 45.7108 90.5784 45.6578C90.4491 45.5973 90.3351 45.5216 90.2363 45.4231C90.1374 45.3247 90.0614 45.2112 90.0082 45.0749C89.955 44.9462 89.9246 44.8024 89.9246 44.6585M90.3427 44.6661C90.3427 44.7569 90.3579 44.8402 90.3883 44.9235C90.4263 44.9992 90.4719 45.0749 90.5252 45.1355C90.586 45.196 90.6544 45.2414 90.738 45.2717C90.8216 45.302 90.9053 45.3171 90.9889 45.3247C91.0725 45.3323 91.1637 45.3096 91.2473 45.2793C91.3234 45.2414 91.3994 45.196 91.4526 45.143C91.5134 45.0825 91.559 45.0143 91.5894 44.931C91.6275 44.8553 91.6427 44.7645 91.6427 44.6736C91.6427 44.5828 91.6275 44.4995 91.5894 44.4238C91.559 44.3481 91.5134 44.28 91.4526 44.2194C91.3918 44.1589 91.3234 44.1134 91.2473 44.0831C91.1637 44.0453 91.0801 44.0302 90.9889 44.0302C90.8977 44.0302 90.814 44.0453 90.7304 44.0831C90.6468 44.1134 90.5784 44.1589 90.5176 44.2194C90.4567 44.28 90.4111 44.3481 90.3731 44.4238C90.3427 44.4995 90.3275 44.5828 90.3275 44.6736" fill="#FF0000"/>
<path fill-rule="evenodd" clip-rule="evenodd" d="M94.326 43.5986V44.0226H93.0185C92.9576 44.0226 92.9044 44.0453 92.8664 44.0831C92.8208 44.121 92.8056 44.174 92.8056 44.2346C92.8056 44.2951 92.8284 44.3481 92.8664 44.3935C92.9044 44.4314 92.9576 44.4541 93.0185 44.4541H93.8851C93.9763 44.4541 94.0599 44.4768 94.136 44.5147C94.212 44.545 94.2804 44.5904 94.3412 44.6509C94.402 44.7115 94.4476 44.7796 94.478 44.8553C94.5085 44.931 94.5313 45.0143 94.5313 45.1052C94.5313 45.196 94.5085 45.2793 94.478 45.3626C94.4476 45.4383 94.3944 45.5064 94.3336 45.567C94.2728 45.6275 94.2044 45.673 94.1284 45.7032C94.0523 45.7335 93.9687 45.7487 93.8775 45.7487H92.5775V45.3171H93.8775C93.9459 45.3171 93.9915 45.302 94.0371 45.2642C94.0751 45.2187 94.0979 45.1657 94.0979 45.1052C94.0979 45.0446 94.0751 44.9916 94.0371 44.9538C93.9915 44.9159 93.9459 44.8932 93.8775 44.8932H93.0109C92.9196 44.8932 92.836 44.8705 92.76 44.8402C92.684 44.8099 92.6155 44.7569 92.5623 44.7039C92.5015 44.6434 92.4559 44.5752 92.4255 44.4995C92.3951 44.4238 92.3799 44.333 92.3799 44.2421C92.3799 44.1513 92.3951 44.068 92.4331 43.9923C92.4635 43.909 92.5167 43.8409 92.5699 43.7879C92.6307 43.7273 92.6992 43.6895 92.7752 43.6592C92.8588 43.6213 92.9424 43.6062 93.0337 43.6062H94.3336L94.326 43.5986Z" fill="#FF0000"/>
<path fill-rule="evenodd" clip-rule="evenodd" d="M97.0779 43.6138V44.6888C97.0779 44.8326 97.0399 44.9765 96.9867 45.1052C96.9335 45.2339 96.8575 45.3474 96.7586 45.4458C96.6598 45.5443 96.5458 45.62 96.4089 45.6805C96.2797 45.7335 96.1429 45.7638 95.9908 45.7638C95.8388 45.7638 95.702 45.7335 95.5727 45.6805C95.4435 45.62 95.3295 45.5443 95.2306 45.4458C95.1318 45.3474 95.0558 45.2339 95.0026 45.0976C94.9494 44.9689 94.9189 44.8251 94.9189 44.6812V43.6062H95.3523V44.6812C95.3523 44.7721 95.3599 44.8553 95.3979 44.9386C95.4283 45.0219 95.4815 45.09 95.5347 45.1506C95.5955 45.2036 95.6639 45.2566 95.74 45.2869C95.816 45.3171 95.9072 45.3399 95.9984 45.3399C96.0897 45.3399 96.1733 45.3247 96.2493 45.2944C96.3329 45.2642 96.4013 45.2112 96.4546 45.1582C96.5154 45.0976 96.561 45.0295 96.5914 44.9462C96.6294 44.8629 96.6446 44.7796 96.6446 44.6888V43.6138H97.0779Z" fill="#FF0000"/>
<path fill-rule="evenodd" clip-rule="evenodd" d="M99.5335 42.7583V44.6888C99.5259 44.8326 99.4955 44.9765 99.4347 45.1052C99.3815 45.2339 99.2979 45.3474 99.1991 45.4458C99.1002 45.5443 98.9862 45.62 98.857 45.6805C98.7277 45.7335 98.5833 45.7638 98.4389 45.7638C98.2944 45.7638 98.15 45.7335 98.0207 45.6805C97.8915 45.62 97.7775 45.5443 97.6787 45.4458C97.5798 45.3474 97.5038 45.2339 97.443 45.0976C97.3898 44.9689 97.3594 44.8251 97.3594 44.6812C97.3594 44.5374 97.3898 44.3935 97.443 44.2648C97.5038 44.1361 97.5798 44.0226 97.6787 43.9242C97.7775 43.8257 97.8915 43.75 98.0207 43.697C98.15 43.6441 98.2944 43.6138 98.4389 43.6138H99.085V42.7583H99.5107H99.5335ZM98.4389 45.3399C98.5301 45.3399 98.6137 45.3247 98.6897 45.2944C98.7734 45.2642 98.8418 45.2112 98.895 45.1582C98.9558 45.0976 99.0014 45.0295 99.0318 44.9462C99.0698 44.8629 99.085 44.7796 99.085 44.6888V44.0453H98.4389C98.3476 44.0453 98.264 44.0604 98.1804 44.0983C98.0968 44.1286 98.0283 44.174 97.9675 44.2346C97.9067 44.2876 97.8611 44.3557 97.8231 44.439C97.7927 44.5147 97.7775 44.5979 97.7699 44.6888C97.7623 44.7796 97.7851 44.8629 97.8155 44.9462C97.8535 45.0295 97.8991 45.0976 97.9523 45.1582C98.0131 45.2112 98.0816 45.2642 98.1652 45.2944C98.2412 45.3247 98.3324 45.3474 98.4237 45.3474" fill="#FF0000"/>
<path d="M94.4023 31.7054C94.4023 30.6001 93.604 29.3055 91.3158 29.2904C88.199 29.2752 86.1769 31.5388 86.1617 35.0591C86.1541 37.4363 87.5224 38.746 90.0235 38.7611C92.3497 38.7687 93.3304 37.5347 93.4064 36.7549C93.4444 36.3612 93.2391 35.7783 92.7906 35.4755C92.7374 35.4376 92.669 35.4452 92.6234 35.4906C91.9696 36.1039 91.3082 36.4142 90.6621 36.4142C89.4381 36.4142 88.8452 35.8843 88.8452 34.8169C89.2101 34.8699 89.651 34.9228 90.0691 34.9228C92.6462 34.9304 94.387 33.6434 94.3946 31.7129M88.9364 33.4693C88.8908 33.4693 88.8528 33.4466 88.83 33.4163C88.8072 33.3785 88.7996 33.3406 88.8072 33.2952C89.2101 32.0612 90.0995 31.2057 90.9737 31.2057C91.5591 31.2057 91.9164 31.4934 91.9164 31.9552C91.9164 32.6971 90.9889 33.4542 88.9364 33.4617V33.4693Z" fill="#FF0000"/>
<path d="M80.3384 38.7233C79.9051 38.7233 79.6162 38.3372 79.5022 37.989C79.3958 37.5726 76.9403 28.0413 76.8795 27.7839C76.8415 27.6476 76.8795 27.5113 76.9631 27.3902C77.062 27.2615 77.2292 27.1707 77.3889 27.1707L79.6923 27.1858C80.1332 27.1707 80.2472 27.4735 80.308 27.7612L81.798 34.3627L84.4663 27.7687C84.6336 27.4053 84.8008 27.2085 85.2037 27.2009H87.2183C87.3171 27.2009 87.4691 27.2539 87.5604 27.3751C87.644 27.481 87.6668 27.6173 87.6212 27.7612C87.5908 27.8596 84.2079 35.5361 83.174 37.8905C82.9763 38.2994 82.7027 38.5113 82.3302 38.5416L80.3993 38.693C80.3993 38.693 80.3612 38.693 80.346 38.693" fill="#FF0000"/>
<path d="M103.753 29.6007C103.608 29.5629 103.312 29.525 103.114 29.525C102.719 29.525 102.324 29.6234 102.042 29.7976C101.343 29.4796 100.575 29.3358 99.5488 29.3282C96.6145 29.3131 94.5543 31.8189 94.5391 35.4149C94.5315 37.5574 95.4209 38.7838 96.987 38.7914C98.6366 38.7914 99.4576 37.6936 99.9289 36.6943C99.8453 37.0804 99.8073 37.3757 99.8073 37.5952C99.8073 38.3069 100.233 38.7308 100.963 38.7384C101.51 38.7384 102.004 38.6475 102.46 38.5491C102.521 38.534 102.567 38.481 102.567 38.4204V38.0873C102.574 36.2931 102.863 34.8395 103.798 30.0323L103.852 29.7521C103.867 29.684 103.821 29.6159 103.76 29.6007M100.826 31.6826C100.279 34.9228 99.488 36.3007 98.1881 36.3007C97.6255 36.3007 97.2758 35.8919 97.2834 35.2332C97.291 32.9621 98.6214 31.2738 99.7997 31.2814C100.248 31.2814 100.575 31.3798 100.788 31.5691C100.826 31.5994 100.841 31.6448 100.834 31.6902" fill="#FF0000"/>
</g>
<defs>
<clipPath id="clip0_53_5037">
<rect width="114" height="66" fill="white"/>
</clipPath>
</defs>
</svg>
