<svg width="267" height="136" viewBox="0 0 267 136" fill="none" xmlns="http://www.w3.org/2000/svg">
<g clip-path="url(#clip0_83_720)">
<path d="M11.9723 0H0V36.4626H11.9723V0Z" fill="#9A1914"/>
<path d="M34.0936 33.9188L27.2851 22.9961V36.4626H15.3633V0H27.0751L34.0936 11.1849L41.085 0H52.7929V36.4626H40.8983V22.9961L34.0936 33.9188Z" fill="#9A1914"/>
<path d="M11.9723 122.322V135.789H0V99.3262H11.6613L21.0245 112.66V99.3262H32.9696V135.789H21.7789L21.4172 136L11.9723 122.322Z" fill="#9A1914"/>
<path d="M61.0086 99.377H47.9164L35.8896 135.789H48.6202L49.9773 131.327H58.975L60.3048 135.789H73.086L61.0086 99.377ZM52.8975 121.586L54.4878 116.362L56.0548 121.586H52.8975Z" fill="#9A1914"/>
<path d="M87.6677 122.322V135.789H75.6953V99.3262H87.3527L96.7159 112.66V99.3262H108.665V135.789H97.4742L97.1087 136L87.6677 122.322Z" fill="#9A1914"/>
<path d="M133.181 111.216V135.789H121.263V111.216H112.079V99.3262H142.389V111.216H133.181Z" fill="#9A1914"/>
<path d="M172.201 110.038H157.725V112.347H167.403V122.271H157.725V124.764H172.256V135.789H145.752V99.3262H172.201V110.038Z" fill="#9A1914"/>
<path d="M135.452 57.1104H115.248V60.3352H128.752V74.1814H115.248V77.6644H135.522V93.0486H98.5396V42.1606H135.452V57.1104Z" fill="#DF2028"/>
<path d="M175.382 74.8037L185.39 87.8475L184.115 89.1312C179.429 93.0408 173.62 94.9937 166.679 94.9937C159.229 94.9937 152.86 92.3207 147.568 86.9709C142.276 81.6719 139.632 75.2615 139.632 67.7358C139.632 60.21 142.276 53.7526 147.568 48.4302C152.86 43.1038 159.229 40.4426 166.679 40.4426C172.407 40.4426 177.987 42.372 183.423 46.2308L174.25 60.7031C171.898 58.4567 169.374 57.3335 166.679 57.3335C163.744 57.3335 161.294 58.3472 159.327 60.3744C157.289 62.4016 156.27 64.8554 156.27 67.7397C156.27 70.8431 157.145 73.25 158.891 74.9563C160.734 76.8387 163.332 77.778 166.679 77.778C170.467 77.778 173.364 76.7878 175.382 74.8115V74.8037Z" fill="#DF2028"/>
<path d="M205.377 42.1606H188.668V93.0486H205.377V42.1606Z" fill="#DF2028"/>
<path d="M235.955 65.1372L236.562 67.0901C234.598 67.6341 234.206 67.6575 234.069 67.2114C233.918 66.7339 234.124 65.9121 235.955 65.1372Z" fill="#DF2028"/>
<path d="M243.857 69.7982C243.993 70.2443 243.833 71.0857 241.768 71.9897L241.104 69.8529C243.3 69.2581 243.697 69.2855 243.857 69.7982Z" fill="#DF2028"/>
<path d="M239.214 40.8613C223.87 40.8613 211.431 53.3847 211.431 68.8276C211.431 84.2705 223.87 96.79 239.214 96.79C254.557 96.79 267 84.2705 267 68.8276C267 53.3847 254.561 40.8613 239.214 40.8613ZM242.947 75.7742L243.693 78.1614L240.341 79.2181L239.603 76.8426C234.143 78.3375 230.788 78.1419 229.578 74.2283L235.43 72.3811C235.605 72.9564 236.255 73.426 238.413 73.0229L237.713 70.7844C234.758 71.5514 232.541 71.798 231.071 71.524C229.602 71.2462 228.618 70.3382 228.136 68.7963C227.23 65.8807 229.559 63.3134 234.785 61.3762L234.038 58.985L237.39 57.9283L238.137 60.3274C243.223 59.0007 246.745 59.4938 247.764 62.7655L241.916 64.6127C241.757 64.0961 240.901 63.9513 239.334 64.1822L239.952 66.1586C245.241 64.7536 248.604 64.4209 249.666 67.8257C250.789 71.4301 248.27 73.8683 242.947 75.7742Z" fill="#DF2028"/>
<path d="M38.7322 48.3519C34.6805 44.227 29.6062 42.1606 23.517 42.1606H0V93.0486H16.7084V83.7813H23.517C29.509 83.7813 34.5833 81.6915 38.7322 77.5157C42.955 73.2891 45.0664 68.1858 45.0664 62.202C45.0664 57.1691 42.955 52.555 38.7322 48.3519ZM24.979 68.6359L20.4996 66.1625L15.9307 68.4754L16.8834 63.4191L13.2866 59.7638L18.3571 59.1142L20.7018 54.5431L22.8832 59.1924L27.9264 60.0221L24.2052 63.5482L24.979 68.6359Z" fill="#DF2028"/>
<path d="M84.8871 79.3473C85.5948 78.7876 86.2714 78.1771 86.9285 77.5157C91.1513 73.2891 93.2627 68.1858 93.2627 62.202C93.2627 57.1691 91.1513 52.555 86.9285 48.3519C82.8729 44.227 77.8025 42.1606 71.7133 42.1606H48.1963V93.0486H64.9047V83.7813H67.2727L74.1863 93.0486H95.0825L84.8871 79.3473ZM75.3489 64.9649L72.176 68.1623L68.9603 64.9258L65.7407 68.1623L62.5678 64.9649L65.7835 61.7284L62.5678 58.4919L65.7407 55.2945L68.9603 58.535L72.176 55.2945L75.3489 58.4919L72.1332 61.7284L75.3489 64.9649Z" fill="#DF2028"/>
</g>
<defs>
<clipPath id="clip0_83_720">
<rect width="267" height="136" fill="white"/>
</clipPath>
</defs>
</svg>
